[Header]
FileType HTR
DataType HTRS
FileVersion 1
NumSegments 64
NumFrames 3
DataFrameRate 30
EulerRotationOrder ZYX
CalibrationUnits mm
RotationUnits Degrees
GlobalAxisofGravity Y
BoneLengthAxis Y
ScaleFactor 1.0
[SegmentNames&Hierarchy]
Hips	GLOBAL
Spine	Hips
Spine1	Spine
Spine2	Spine1
Neck	Spine2
Head	Neck
LeftEye	Head
RightEye	Head
LeftShoulder	Spine2
LeftArm	LeftShoulder
LeftForeArm	LeftArm
LeftHand	LeftForeArm
LeftHandThumb1	LeftHand
LeftHandThumb2	LeftHandThumb1
LeftHandThumb3	LeftHandThumb2
LeftHandThumb4	LeftHandThumb3
LeftHandIndex1	LeftHand
LeftHandIndex2	LeftHandIndex1
LeftHandIndex3	LeftHandIndex2
LeftHandIndex4	LeftHandIndex3
LeftHandMiddle1	LeftHand
LeftHandMiddle2	LeftHandMiddle1
LeftHandMiddle3	LeftHandMiddle2
LeftHandMiddle4	LeftHandMiddle3
LeftHandRing1	LeftHand
LeftHandRing2	LeftHandRing1
LeftHandRing3	LeftHandRing2
LeftHandRing4	LeftHandRing3
LeftHandPinky1	LeftHand
LeftHandPinky2	LeftHandPinky1
LeftHandPinky3	LeftHandPinky2
LeftHandPinky4	LeftHandPinky3
RightShoulder	Spine2
RightArm	RightShoulder
RightForeArm	RightArm
RightHand	RightForeArm
RightHandPinky1	RightHand
RightHandPinky2	RightHandPinky1
RightHandPinky3	RightHandPinky2
RightHandPinky4	RightHandPinky3
RightHandRing1	RightHand
RightHandRing2	RightHandRing1
RightHandRing3	RightHandRing2
RightHandRing4	RightHandRing3
RightHandMiddle1	RightHand
RightHandMiddle2	RightHandMiddle1
RightHandMiddle3	RightHandMiddle2
RightHandMiddle4	RightHandMiddle3
RightHandIndex1	RightHand
RightHandIndex2	RightHandIndex1
RightHandIndex3	RightHandIndex2
RightHandIndex4	RightHandIndex3
RightHandThumb1	RightHand
RightHandThumb2	RightHandThumb1
RightHandThumb3	RightHandThumb2
RightHandThumb4	RightHandThumb3
LeftUpLeg	Hips
LeftLeg	LeftUpLeg
LeftFoot	LeftLeg
LeftToeBase	LeftFoot
RightUpLeg	Hips
RightLeg	RightUpLeg
RightFoot	RightLeg
RightToeBase	RightFoot
[BasePosition]
Hips	0	0	0	0	0	0	1
Spine	0	0	0	0	0	0	1
Spine1	0	0	0	0	0	0	1
Spine2	0	0	0	0	0	0	1
Neck	0	0	0	0	0	0	1
Head	0	0	0	0	0	0	1
LeftEye	0	0	0	0	0	0	1
RightEye	0	0	0	0	0	0	1
LeftShoulder	0	0	0	0	0	0	1
LeftArm	0	0	0	0	0	0	1
LeftForeArm	0	0	0	0	0	0	1
LeftHand	0	0	0	0	0	0	1
LeftHandThumb1	0	0	0	0	0	0	1
LeftHandThumb2	0	0	0	0	0	0	1
LeftHandThumb3	0	0	0	0	0	0	1
LeftHandThumb4	0	0	0	0	0	0	1
LeftHandIndex1	0	0	0	0	0	0	1
LeftHandIndex2	0	0	0	0	0	0	1
LeftHandIndex3	0	0	0	0	0	0	1
LeftHandIndex4	0	0	0	0	0	0	1
LeftHandMiddle1	0	0	0	0	0	0	1
LeftHandMiddle2	0	0	0	0	0	0	1
LeftHandMiddle3	0	0	0	0	0	0	1
LeftHandMiddle4	0	0	0	0	0	0	1
LeftHandRing1	0	0	0	0	0	0	1
LeftHandRing2	0	0	0	0	0	0	1
LeftHandRing3	0	0	0	0	0	0	1
LeftHandRing4	0	0	0	0	0	0	1
LeftHandPinky1	0	0	0	0	0	0	1
LeftHandPinky2	0	0	0	0	0	0	1
LeftHandPinky3	0	0	0	0	0	0	1
LeftHandPinky4	0	0	0	0	0	0	1
RightShoulder	0	0	0	0	0	0	1
RightArm	0	0	0	0	0	0	1
RightForeArm	0	0	0	0	0	0	1
RightHand	0	0	0	0	0	0	1
RightHandPinky1	0	0	0	0	0	0	1
RightHandPinky2	0	0	0	0	0	0	1
RightHandPinky3	0	0	0	0	0	0	1
RightHandPinky4	0	0	0	0	0	0	1
RightHandRing1	0	0	0	0	0	0	1
RightHandRing2	0	0	0	0	0	0	1
RightHandRing3	0	0	0	0	0	0	1
RightHandRing4	0	0	0	0	0	0	1
RightHandMiddle1	0	0	0	0	0	0	1
RightHandMiddle2	0	0	0	0	0	0	1
RightHandMiddle3	0	0	0	0	0	0	1
RightHandMiddle4	0	0	0	0	0	0	1
RightHandIndex1	0	0	0	0	0	0	1
RightHandIndex2	0	0	0	0	0	0	1
RightHandIndex3	0	0	0	0	0	0	1
RightHandIndex4	0	0	0	0	0	0	1
RightHandThumb1	0	0	0	0	0	0	1
RightHandThumb2	0	0	0	0	0	0	1
RightHandThumb3	0	0	0	0	0	0	1
RightHandThumb4	0	0	0	0	0	0	1
LeftUpLeg	0	0	0	0	0	0	1
LeftLeg	0	0	0	0	0	0	1
LeftFoot	0	0	0	0	0	0	1
LeftToeBase	0	0	0	0	0	0	1
RightUpLeg	0	0	0	0	0	0	1
RightLeg	0	0	0	0	0	0	1
RightFoot	0	0	0	0	0	0	1
RightToeBase	0	0	0	0	0	0	1
[Hips]
15	98.80302429	1015.594421	-70.9994278	-1.793545842	-34.73092651	-4.78827095	1.0
16	93.93783569	1016.303833	-78.52445221	-2.219961405	-41.04338074	-4.366665363	1.0
17	89.16251373	1019.410889	-83.32785034	-2.657120705	-48.62230682	-3.673248291	1.0
[Spine]
15	0	101.8159943	1.315000057	2.966568947	-0.419193238	3.073468208	1.0
16	0	101.8159943	1.315000057	3.186952114	-0.02666068822	2.517557859	1.0
17	0	101.8159943	1.315000057	3.321236849	0.3638726175	1.924165249	1.0
[Spine1]
15	0	100.8349991	-10.00800037	0.8819294572	-1.434600472	-2.6717453	1.0
16	0	100.8349991	-10.00800037	1.05603385	-1.122594833	-3.115820169	1.0
17	0	100.8349991	-10.00800037	1.15963769	-0.7990546823	-3.442167997	1.0
[Spine2]
15	0	91	-13.73399925	0.7423751354	-1.057141066	1.268599987	1.0
16	0	91	-13.73399925	0.9344077706	-0.7392207384	0.9845574498	1.0
17	0	91	-13.73399925	1.062494993	-0.4084764719	0.7424818277	1.0
[Neck]
15	0	166.7169952	-25.16200066	7.649757862	-8.005070686	2.026456356	1.0
16	0	166.7169952	-25.16200066	7.507138729	-7.367277145	1.760984182	1.0
17	0	166.7169952	-25.16200066	7.412742615	-6.635559082	1.657125831	1.0
[Head]
15	0	96.17900085	16.84999847	-2.71249342	-23.38756752	9.43976593	1.0
16	0	96.17900085	16.84999847	-3.121189117	-22.70693207	9.768239021	1.0
17	0	96.17900085	16.84999847	-3.582133532	-21.32098961	9.982743263	1.0
[LeftEye]
15	30.6760006	64.09500122	92.83599854	0	0	0	1.0
16	30.6760006	64.09500122	92.83599854	0	0	0	1.0
17	30.6760006	64.09500122	92.83599854	0	0	0	1.0
[RightEye]
15	-30.6760006	64.09500122	92.83499908	0	0	0	1.0
16	-30.6760006	64.09500122	92.83499908	0	0	0	1.0
17	-30.6760006	64.09500122	92.83499908	0	0	0	1.0
[LeftShoulder]
15	45.70400238	109.4599991	-26.28000069	4.66102314	-17.73870277	-13.01713371	1.0
16	45.70400238	109.4599991	-26.28000069	4.679840565	-18.13557243	-13.18582535	1.0
17	45.70400238	109.4599991	-26.28000069	4.671325684	-18.00065422	-13.24461555	1.0
[LeftArm]
15	105.923996	-5.24600029	-22.32099915	14.62276936	5.335823059	-59.78911591	1.0
16	105.923996	-5.24600029	-22.32099915	13.93414211	5.344408512	-58.74180222	1.0
17	105.923996	-5.24600029	-22.32099915	13.38051701	5.157604694	-58.05228806	1.0
[LeftForeArm]
15	278.414978	-0.0009999999311	0	1.514477844e-06	-9.272740364	-0.0002048580791	1.0
16	278.414978	-0.0009999999311	0	-3.187168659e-06	-9.5457201	-0.0001950173755	1.0
17	278.414978	-0.0009999999311	0	-1.6273342e-06	-9.471673965	-0.0001965017291	1.0
[LeftHand]
15	283.2879944	0	0	-27.15906906	7.91763258	0.8845310211	1.0
16	283.2879944	0	0	-27.4159584	8.318078041	1.319963813	1.0
17	283.2879944	0	0	-27.97426605	8.57179451	1.676416874	1.0
[LeftHandThumb1]
15	24.6609993	-15.75	26.8239994	-0.4889863729	2.201392412	4.818544865	1.0
16	24.6609993	-15.75	26.8239994	-0.4889863729	2.201392412	4.818544865	1.0
17	24.6609993	-15.75	26.8239994	-0.4889863729	2.201392412	4.818544865	1.0
[LeftHandThumb2]
15	32.29800034	-18.64699936	18.64699936	20.38507843	18.11178398	22.51228905	1.0
16	32.29800034	-18.64699936	18.64699936	20.35504341	18.19524765	22.47487831	1.0
17	32.29800034	-18.64699936	18.64699936	20.50085068	18.80338669	22.71852303	1.0
[LeftHandThumb3]
15	26.52600098	-15.31499958	15.31499958	-13.16654968	5.441997528	8.008457184	1.0
16	26.52600098	-15.31499958	15.31499958	-13.09735489	5.436382294	8.031609535	1.0
17	26.52600098	-15.31499958	15.31499958	-13.15478706	5.486077309	7.993129253	1.0
[LeftHandThumb4]
15	19.54599953	-11.28499985	11.28499985	0	0	0	1.0
16	19.54599953	-11.28499985	11.28499985	0	0	0	1.0
17	19.54599953	-11.28499985	11.28499985	0	0	0	1.0
[LeftHandIndex1]
15	91.09299469	-5.170999527	22.60099792	0.08245755732	-1.068935275	-7.652896881	1.0
16	91.09299469	-5.170999527	22.60099792	0.06670420617	-0.8594062924	-8.860934258	1.0
17	91.09299469	-5.170999527	22.60099792	0.1028307527	-0.8405476809	-8.624988556	1.0
[LeftHandIndex2]
15	36.76399994	0	0	-0.262724787	1.732401848	-17.24525261	1.0
16	36.76399994	0	0	-0.2650889158	1.740020156	-17.3235836	1.0
17	36.76399994	0	0	-0.2653203309	1.740766764	-17.33116722	1.0
[LeftHandIndex3]
15	28.83100128	0	0	-0.05557280034	0.8040912747	-7.90722084	1.0
16	28.83100128	0	0	-0.05667444319	0.8120001554	-7.98545742	1.0
17	28.83100128	0	0	-0.05679102615	0.8127593994	-7.993087769	1.0
[LeftHandIndex4]
15	23.92700005	0	0	0	0	0	1.0
16	23.92700005	0	0	0	0	0	1.0
17	23.92700005	0	0	0	0	0	1.0
[LeftHandMiddle1]
15	95.33399963	0	0	-0.8304687738	2.876621723	-16.24271774	1.0
16	95.33399963	0	0	-0.8339030147	2.877635717	-16.29289436	1.0
17	95.33399963	0	0	-0.8128032684	2.81976676	-15.98382282	1.0
[LeftHandMiddle2]
15	36.98199844	0	0	-0.2722559273	1.762793183	-17.55774879	1.0
16	36.98199844	0	0	-0.2716541588	1.760885477	-17.5381279	1.0
17	36.98199844	0	0	-0.2702563107	1.756502151	-17.49308205	1.0
[LeftHandMiddle3]
15	29.50900078	0	0	-0.3040622473	1.860325575	-18.56414986	1.0
16	29.50900078	0	0	-0.3034281433	1.858430862	-18.54452324	1.0
17	29.50900078	0	0	-0.3019838333	1.854072332	-18.49956131	1.0
[LeftHandMiddle4]
15	28.3390007	0	0	0	0	0	1.0
16	28.3390007	0	0	0	0	0	1.0
17	28.3390007	0	0	0	0	0	1.0
[LeftHandRing1]
15	91.04499817	-0.4390000105	-18.65100098	-1.284388065	3.178811789	-22.47474289	1.0
16	91.04499817	-0.4390000105	-18.65100098	-1.294974804	3.201027155	-22.61071777	1.0
17	91.04499817	-0.4390000105	-18.65100098	-1.263731956	3.258181334	-22.20413589	1.0
[LeftHandRing2]
15	31.54000092	0	0	-0.3853035867	2.086544275	-20.92300797	1.0
16	31.54000092	0	0	-0.3854334354	2.086882591	-20.92654037	1.0
17	31.54000092	0	0	-0.3853575587	2.08669734	-20.92462349	1.0
[LeftHandRing3]
15	29.37700081	0	0	-0.2821390331	1.793760538	-17.87656212	1.0
16	29.37700081	0	0	-0.282251209	1.794086814	-17.88006973	1.0
17	29.37700081	0	0	-0.2821913958	1.793869615	-17.8779583	1.0
[LeftHandRing4]
15	26.47500038	0	0	0	0	0	1.0
16	26.47500038	0	0	0	0	0	1.0
17	26.47500038	0	0	0	0	0	1.0
[LeftHandPinky1]
15	80.77799988	-4.887000084	-38.06099701	-1.99578476	4.414943218	-28.43255234	1.0
16	80.77799988	-4.887000084	-38.06099701	-1.98421371	4.459233761	-28.38886833	1.0
17	80.77799988	-4.887000084	-38.06099701	-1.878718257	4.835457325	-27.98148727	1.0
[LeftHandPinky2]
15	36	0	0	-0.2705869079	1.757518888	-17.50346184	1.0
16	36	0	0	-0.2704748809	1.757163763	-17.49985886	1.0
17	36	0	0	-0.2757768035	1.773899913	-17.67198944	1.0
[LeftHandPinky3]
15	21.14200211	0	0	-0.2429871559	1.667546272	-16.58034325	1.0
16	21.14200211	0	0	-0.242922321	1.667297602	-16.57773018	1.0
17	21.14200211	0	0	-0.248230949	1.685031176	-16.75924873	1.0
[LeftHandPinky4]
15	19.75699997	0	0	0	0	0	1.0
16	19.75699997	0	0	0	0	0	1.0
17	19.75699997	0	0	0	0	0	1.0
[RightShoulder]
15	-45.70000076	109.4620056	-26.28000069	4.6195364	14.60458946	14.37306786	1.0
16	-45.70000076	109.4620056	-26.28000069	4.533212662	14.79728222	14.1772995	1.0
17	-45.70000076	109.4620056	-26.28000069	4.541975021	15.00108242	14.23808384	1.0
[RightArm]
15	-105.9280014	-5.248000145	-22.32099915	-30.02858162	-13.39095974	70.18470764	1.0
16	-105.9280014	-5.248000145	-22.32099915	-29.57821274	-12.59220219	70.79571533	1.0
17	-105.9280014	-5.248000145	-22.32099915	-27.74974632	-11.34021282	70.70901489	1.0
[RightForeArm]
15	-278.414978	0	0	-4.32403084e-07	22.98024178	-2.639295781e-05	1.0
16	-278.414978	0	0	-5.361203876e-06	21.24466896	-1.391586648e-05	1.0
17	-278.414978	0	0	6.268624475e-06	19.17775536	4.99050293e-06	1.0
[RightHand]
15	-283.2879944	0	0.0009999999311	34.49759293	15.3791256	9.505090714	1.0
16	-283.2879944	0	0.0009999999311	33.76223373	14.30195808	8.518548965	1.0
17	-283.2879944	0	0.0009999999311	31.25561333	13.82992744	5.886583328	1.0
[RightHandPinky1]
15	-80.76699829	-4.885000229	-38.06000137	-1.431774616	-5.556954861	26.13758469	1.0
16	-80.76699829	-4.885000229	-38.06000137	-1.435037494	-5.460280895	26.19684792	1.0
17	-80.76699829	-4.885000229	-38.06000137	-1.447116613	-5.455355644	26.37504196	1.0
[RightHandPinky2]
15	-36	0	0.0009999999311	-0.2100823671	-1.380297065	17.32685852	1.0
16	-36	0	0.0009999999311	-0.2103611827	-1.381193399	17.33844948	1.0
17	-36	0	0.0009999999311	-0.2111417949	-1.383706212	17.37088394	1.0
[RightHandPinky3]
15	-21.14200211	0	0	-0.1894869208	-1.312394023	16.43069458	1.0
16	-21.14200211	0	0	-0.1897431761	-1.313260674	16.44186783	1.0
17	-21.14200211	0	0	-0.1904844046	-1.315781832	16.47430992	1.0
[RightHandPinky4]
15	-19.75699997	0	0	0	0	0	1.0
16	-19.75699997	0	0	0	0	0	1.0
17	-19.75699997	0	0	0	0	0	1.0
[RightHandRing1]
15	-91.03599548	-0.4390000105	-18.65100098	-1.061056614	-2.775186062	20.71962547	1.0
16	-91.03599548	-0.4390000105	-18.65100098	-1.055522919	-2.824358463	20.63501358	1.0
17	-91.03599548	-0.4390000105	-18.65100098	-1.069015622	-2.96722436	20.83691978	1.0
[RightHandRing2]
15	-31.54000092	0	0	-0.3033793569	-1.650091052	20.83473587	1.0
16	-31.54000092	0	0	-0.3036265075	-1.65072906	20.84315491	1.0
17	-31.54000092	0	0	-0.3048920035	-1.654053926	20.88708878	1.0
[RightHandRing3]
15	-29.37700081	0	0	-0.2217220366	-1.417093635	17.78397179	1.0
16	-29.37700081	0	0	-0.2219139338	-1.417716146	17.79206657	1.0
17	-29.37700081	0	0	-0.2229926586	-1.421048641	17.8353138	1.0
[RightHandRing4]
15	-26.47500038	0	0	0	0	0	1.0
16	-26.47500038	0	0	0	0	0	1.0
17	-26.47500038	0	0	0	0	0	1.0
[RightHandMiddle1]
15	-95.32500458	0	0	-0.7318758965	-2.947289467	15.50380993	1.0
16	-95.32500458	0	0	-0.7283563018	-2.813373804	15.44662857	1.0
17	-95.32500458	0	0	-0.7312546968	-2.703637123	15.49669075	1.0
[RightHandMiddle2]
15	-36.98199844	0	0	-0.2139710933	-1.392711163	17.46793365	1.0
16	-36.98199844	0	0	-0.2137292176	-1.391918063	17.45771027	1.0
17	-36.98199844	0	0	-0.2133195251	-1.390639067	17.44106293	1.0
[RightHandMiddle3]
15	-29.50900078	0	0	-0.2391384691	-1.472297668	18.47532654	1.0
16	-29.50900078	0	0	-0.23887299	-1.471506238	18.46506119	1.0
17	-29.50900078	0	0	-0.2384507656	-1.470234632	18.44847679	1.0
[RightHandMiddle4]
15	-28.3390007	0	0.0009999999311	0	0	0	1.0
16	-28.3390007	0	0.0009999999311	0	0	0	1.0
17	-28.3390007	0	0.0009999999311	0	0	0	1.0
[RightHandIndex1]
15	-91.08300018	-5.167999744	22.60099792	0.2267763764	1.08874774	7.23862648	1.0
16	-91.08300018	-5.167999744	22.60099792	0.2623770237	1.023866534	7.184206009	1.0
17	-91.08300018	-5.167999744	22.60099792	0.2815465629	0.969453454	7.267691135	1.0
[RightHandIndex2]
15	-36.76399994	0	0	-0.2129134387	-1.38933444	17.42427254	1.0
16	-36.76399994	0	0	-0.2129575461	-1.389462948	17.42592049	1.0
17	-36.76399994	0	0	-0.2131071389	-1.389961958	17.43234253	1.0
[RightHandIndex3]
15	-28.83100128	0	0	-0.04595415667	-0.651446104	8.070140839	1.0
16	-28.83100128	0	0	-0.04596908391	-0.6515811682	8.071770668	1.0
17	-28.83100128	0	0	-0.0460454151	-0.6520981789	8.078199387	1.0
[RightHandIndex4]
15	-23.92700005	0	0	0	0	0	1.0
16	-23.92700005	0	0	0	0	0	1.0
17	-23.92700005	0	0	0	0	0	1.0
[RightHandThumb1]
15	-24.64799881	-15.72700024	26.82600021	-1.658462644	-0.289145112	-4.221315384	1.0
16	-24.64799881	-15.72700024	26.82600021	-1.658462644	-0.289145112	-4.221315384	1.0
17	-24.64799881	-15.72700024	26.82600021	-1.658462644	-0.289145112	-4.221315384	1.0
[RightHandThumb2]
15	-32.29800034	-18.64699936	18.64699936	21.95730972	-19.9745388	-22.77599907	1.0
16	-32.29800034	-18.64699936	18.64699936	22.09168434	-20.36333275	-22.9145565	1.0
17	-32.29800034	-18.64699936	18.64699936	22.52832031	-21.4460392	-23.42431831	1.0
[RightHandThumb3]
15	-26.52600098	-15.31399918	15.31399918	-13.88510036	-5.990703106	-11.35106659	1.0
16	-26.52600098	-15.31399918	15.31399918	-13.84338665	-5.921964645	-11.40467167	1.0
17	-26.52600098	-15.31399918	15.31399918	-13.82782269	-5.775483131	-11.55386543	1.0
[RightHandThumb4]
15	-19.54599953	-11.28499985	11.28499985	0	0	0	1.0
16	-19.54599953	-11.28499985	11.28499985	0	0	0	1.0
17	-19.54599953	-11.28499985	11.28499985	0	0	0	1.0
[LeftUpLeg]
15	82.07800293	-67.51699829	-15.99599934	-20.66533089	28.58156395	7.233979702	1.0
16	82.07800293	-67.51699829	-15.99599934	-22.21308899	29.53188133	8.245767593	1.0
17	82.07800293	-67.51699829	-15.99599934	-21.91518402	29.23725128	8.439090729	1.0
[LeftLeg]
15	0	-443.7049866	2.845999956	37.9617691	-4.709592342	-3.15943718	1.0
16	0	-443.7049866	2.845999956	43.54611588	-4.78497982	-4.804853916	1.0
17	0	-443.7049866	2.845999956	44.72586823	-6.408193111	-6.949101448	1.0
[LeftFoot]
15	0	-444.2789917	-29.8219986	-2.658722878	19.84428024	5.608181953	1.0
16	0	-444.2789917	-29.8219986	3.38403821	14.57805347	9.382525444	1.0
17	0	-444.2789917	-29.8219986	7.39229393	11.93877888	7.375514507	1.0
[LeftToeBase]
15	0	-87.28699493	107.1060028	-6.779908657	-0.01826940663	-0.2043186575	1.0
16	0	-87.28699493	107.1060028	-6.226298332	-0.1619256884	-1.787565947	1.0
17	0	-87.28699493	107.1060028	-8.257349968	-0.5015819669	-5.38285923	1.0
[RightUpLeg]
15	-82.07800293	-67.51699829	-15.99599934	-6.413644314	-25.98045731	-1.405713439	1.0
16	-82.07800293	-67.51699829	-15.99599934	-6.722030163	-27.02174568	-0.7449678779	1.0
17	-82.07800293	-67.51699829	-15.99599934	-6.617938995	-27.36892319	-0.07540696859	1.0
[RightLeg]
15	0	-443.7049866	2.861999989	22.8035965	-10.59813786	6.285743237	1.0
16	0	-443.7049866	2.861999989	22.06030083	-7.429205894	6.218051434	1.0
17	0	-443.7049866	2.861999989	20.40896034	-3.631371975	6.433610439	1.0
[RightFoot]
15	0	-444.2770081	-29.83799934	-10.55491924	-30.76361084	-0.4864898026	1.0
16	0	-444.2770081	-29.83799934	-9.291314125	-30.84663582	-1.665379405	1.0
17	0	-444.2770081	-29.83799934	-7.985230446	-31.02974319	-3.684327841	1.0
[RightToeBase]
15	0	-87.28699493	107.1060028	-9.085378647	2.501604831e-05	-1.553734819e-06	1.0
16	0	-87.28699493	107.1060028	-9.264304161	1.235430227e-05	-3.018597681e-06	1.0
17	0	-87.28699493	107.1060028	-9.339722633	-1.226598943e-05	2.1343551e-06	1.0
[EndOfFile]
